<svg width="22" height="18" viewBox="0 0 22 18" fill="none" xmlns="http://www.w3.org/2000/svg">
<path d="M19.8 0H2.2C1.61163 0.0089557 1.05081 0.250825 0.640482 0.672591C0.230151 1.09436 0.003783 1.66161 0.0109982 2.25L-1.759e-06 15.75C-0.00481683 16.3396 0.223836 16.9071 0.636029 17.3287C1.04822 17.7502 1.61047 17.9916 2.2 18H19.8C20.3895 17.9916 20.9518 17.7502 21.364 17.3287C21.7762 16.9071 22.0048 16.3396 22 15.75V2.25C22.0048 1.66043 21.7762 1.0929 21.364 0.671341C20.9518 0.24978 20.3895 0.00843324 19.8 0V0ZM19.8 15.75H2.2V4.5L11 10.125L19.8 4.5V15.75ZM11 7.875L2.2 2.25H19.8L11 7.875Z" fill="#08A6E4"/>
</svg>
